<svg width="281.8" height="103.801" viewBox="0 0 281.8 103.801" xmlns="http://www.w3.org/2000/svg"><g id="svgGroup" stroke-linecap="round" fill-rule="evenodd" font-size="9pt" stroke="none" fill="#000000" style="fill:#000000;stroke:none"><path d="M 35.5 102.5 Q 28.7 102.5 22.35 100.65 Q 16 98.8 10.95 95.2 Q 5.9 91.6 2.95 86.4 Q 0 81.2 0 74.6 Q 0 69.8 1.45 66.05 Q 2.9 62.3 5.05 59.8 Q 7.2 57.3 9.35 56 Q 11.5 54.7 12.9 54.7 Q 13.9 54.7 13.9 55.3 Q 13.9 55.8 13.4 56.1 Q 11.1 57.3 8.7 59.6 Q 6.3 61.9 4.7 65.6 Q 3.1 69.3 3.1 74.8 Q 3.1 80.8 5.65 85.05 Q 8.2 89.3 12.35 92 Q 16.5 94.7 21.3 95.95 Q 26.1 97.2 30.5 97.2 Q 40.3 97.2 48.8 93.4 Q 57.3 89.6 64.35 83.25 Q 71.4 76.9 76.8 69.1 Q 82.2 61.3 85.7 53.3 Q 87 50.4 88.8 46.35 Q 90.6 42.3 92.7 37.7 Q 94.8 33.1 96.8 28.7 Q 98.8 24.3 100.45 20.75 Q 102.1 17.2 103.1 15.3 Q 96.4 16.1 88.65 16.75 Q 80.9 17.4 73.9 19.4 Q 66.1 21.6 61.15 25.8 Q 56.2 30 53.85 34.9 Q 51.5 39.8 51.5 44.1 Q 51.5 49.3 54.1 52.65 Q 56.7 56 61.6 56 Q 65.3 56 68.2 53.85 Q 71.1 51.7 72.8 48.25 Q 74.5 44.8 74.5 40.9 Q 74.5 39.3 74.2 38.2 Q 73.9 37.1 73.9 36.5 Q 73.9 35.8 74.4 35.8 Q 75.1 35.8 75.7 37 Q 76.7 39.3 76.7 41.5 Q 76.7 46.2 74.4 49.95 Q 72.1 53.7 68.5 55.9 Q 64.9 58.1 60.9 58.1 Q 56.2 58.1 52.75 55.85 Q 49.3 53.6 47.4 49.9 Q 45.5 46.2 45.5 41.9 Q 45.5 37 48.2 31.95 Q 50.9 26.9 56.9 22.75 Q 62.9 18.6 72.7 16.4 Q 80.9 14.6 89.4 14.05 Q 97.9 13.5 104.4 12.9 Q 107.9 7.5 110.1 6.05 Q 112.3 4.6 114.1 4.6 Q 115.9 4.6 116.95 5.6 Q 118 6.6 118 8 Q 118 10 115.25 12.25 Q 112.5 14.5 106 15.2 Q 102.8 21.1 100.1 28.35 Q 97.4 35.6 94.7 43.5 Q 92 51.4 88.8 59.2 Q 83.4 72.2 76 81.95 Q 68.6 91.7 58.6 97.1 Q 48.6 102.5 35.5 102.5 Z M 120.4 103.8 Q 113.4 103.8 106.85 99.45 Q 100.3 95.1 95.7 85 Q 93.7 80.5 92.45 75.9 Q 91.2 71.3 90.6 67.3 Q 90 63.3 90 60.7 Q 90 57.5 90.7 57.1 Q 92.6 57.3 97.05 55.5 Q 101.5 53.7 107.65 50.2 Q 113.8 46.7 120.95 41.75 Q 128.1 36.8 135.35 30.6 Q 142.6 24.4 149.3 17.2 Q 156 10 161.1 2.1 Q 161.8 1 162.2 0.5 Q 162.6 0 163 0 Q 163.5 0 163.9 0.45 Q 164.3 0.9 164.3 1.4 Q 164.3 2.2 163.6 3.3 Q 158.8 11.3 152.25 18.95 Q 145.7 26.6 138.3 33.3 Q 130.9 40 123.4 45.4 Q 115.9 50.8 109.1 54.4 Q 102.3 58 97.1 59.3 Q 96.8 59.1 96.8 60.3 Q 96.8 62 97.5 65.75 Q 98.2 69.5 99.65 74.25 Q 101.1 79 103.2 83.9 Q 107 92.8 112.15 96.15 Q 117.3 99.5 122.8 99.5 Q 126.3 99.5 130 98.1 Q 133.7 96.7 136.8 94.25 Q 139.9 91.8 141.6 88.5 Q 142.2 87.5 142.5 87.5 Q 143.2 87.5 143.2 88.3 Q 143.2 88.6 143.05 88.95 Q 142.9 89.3 142.4 90.4 Q 141 93.2 137.75 96.35 Q 134.5 99.5 130.05 101.65 Q 125.6 103.8 120.4 103.8 Z M 113.9 86.1 Q 118.1 77.5 122.65 68.05 Q 127.2 58.6 132 49 Q 136.8 39.4 141.5 30.7 Q 143.2 27.7 144.65 26 Q 146.1 24.3 148.5 24.3 Q 149.4 24.3 150.6 24.6 Q 151.8 24.9 152.9 24.7 Q 151.6 26.1 149.35 29.6 Q 147.1 33.1 144.35 38 Q 141.6 42.9 138.55 48.55 Q 135.5 54.2 132.55 59.95 Q 129.6 65.7 127.1 70.7 Q 129.1 68.1 131.2 65.8 Q 133.3 63.5 135.3 61.8 Q 137.5 59.8 140.85 57.6 Q 144.2 55.4 147.55 53.8 Q 150.9 52.2 152.9 52.2 Q 153.6 52.2 153.9 52.3 L 152.8 54.3 Q 151.7 56.3 150.05 59.4 Q 148.4 62.5 146.65 66.1 Q 144.9 69.7 143.6 72.95 Q 142.3 76.2 141.9 78.3 Q 141.6 79.9 141.6 81 Q 141.6 82.6 142.2 83.15 Q 142.8 83.7 143.5 83.7 Q 145.2 83.7 147.15 81.95 Q 149.1 80.2 151 77.5 Q 152.9 74.8 154.55 71.75 Q 156.2 68.7 157.2 66 Q 158.4 66 158.4 66.9 Q 157.3 69.6 155.65 72.85 Q 154 76.1 151.9 79 Q 149.8 81.9 147.3 83.8 Q 144.8 85.7 142 85.7 Q 140 85.7 137.9 84.3 Q 135.8 82.9 135.8 79.2 Q 135.8 78.1 136 76.85 Q 136.2 75.6 136.7 74 Q 137.3 72 138.7 69.55 Q 140.1 67.1 142.3 63.4 Q 143.3 61.7 143.3 60.7 Q 143.3 59.5 142.1 59.5 Q 141.1 59.5 139.4 60.5 Q 137.7 61.5 135.1 64 Q 132.6 66.4 128.9 71 Q 125.2 75.6 121 83.9 Q 120.3 85.2 119.45 85.25 Q 118.6 85.3 117.2 85.4 Q 116.3 85.5 115.4 85.55 Q 114.5 85.6 113.9 86.1 Z M 178.9 85.6 Q 176.6 85.6 174.85 84.3 Q 173.1 83 173.1 79 Q 173.1 77.3 173.35 75.8 Q 173.6 74.3 174 72.6 Q 173.1 74.1 171.5 76.3 Q 169.9 78.5 167.95 80.6 Q 166 82.7 163.95 84.1 Q 161.9 85.5 160.1 85.5 Q 157.5 85.5 155.9 83.15 Q 154.3 80.8 154.3 77 Q 154.3 72.9 156.2 68.2 Q 158.1 63.5 161.4 59.2 Q 164.7 54.9 169 52.2 Q 173.3 49.5 178 49.5 Q 180.3 49.5 182.4 50.25 Q 184.5 51 186.1 52.7 Q 186.8 53.4 186.8 54.3 Q 186.8 54.9 186.3 55.3 Q 185.8 55.7 185 55.5 Q 183.9 52 180.3 52 Q 178.6 52 176.4 53.1 Q 173.7 54.5 170.65 57.55 Q 167.6 60.6 164.95 64.45 Q 162.3 68.3 160.6 72.2 Q 158.9 76.1 158.9 79.3 Q 158.9 82.6 161.4 82.6 Q 163.6 82.6 165.95 80.5 Q 168.3 78.4 170.45 75.25 Q 172.6 72.1 174.4 69 Q 176.2 65.9 177.2 64 Q 178.7 61.3 180 59.5 Q 181.3 57.7 183.7 57.7 Q 184.8 57.7 185.9 58 Q 187 58.3 188.2 58.1 Q 185.2 61.1 182.95 65.2 Q 180.7 69.3 179.5 73.25 Q 178.3 77.2 178.3 79.9 Q 178.3 82.9 180.3 82.9 Q 181.9 82.9 183.75 81.1 Q 185.6 79.3 187.35 76.55 Q 189.1 73.8 190.6 70.95 Q 192.1 68.1 193 66 Q 193.5 66 193.85 66.1 Q 194.2 66.2 194.2 66.9 Q 194.1 67.3 193.85 67.75 Q 193.6 68.2 193.1 69.3 Q 192.3 70.9 190.9 73.6 Q 189.5 76.3 187.6 79.05 Q 185.7 81.8 183.5 83.7 Q 181.3 85.6 178.9 85.6 Z M 254.8 85.3 Q 251.4 85.3 249.8 83 Q 248.2 80.7 248.2 77.6 Q 248.2 76.7 248.3 75.75 Q 248.4 74.8 248.7 73.8 Q 247.3 76 245.45 78.65 Q 243.6 81.3 241.25 83.25 Q 238.9 85.2 236 85.2 Q 234.7 85.2 233.05 84.6 Q 231.4 84 230.15 82.3 Q 228.9 80.6 228.9 77.3 Q 228.9 73 230.8 68.2 Q 232.7 63.4 236 59.15 Q 239.3 54.9 243.5 52.25 Q 247.7 49.6 252.2 49.6 Q 255.8 49.6 259 51.5 Q 260.5 48.7 262.2 45.25 Q 263.9 41.8 265.6 38.4 Q 267.3 35 268.6 32.15 Q 269.9 29.3 270.6 27.8 Q 272.1 24.3 273.45 23.35 Q 274.8 22.4 276.7 22.4 Q 277.8 22.4 279.15 22.65 Q 280.5 22.9 281.8 22.8 Q 281.3 23.3 279.5 26.1 Q 277.7 28.9 275.1 33.35 Q 272.5 37.8 269.55 43.1 Q 266.6 48.4 263.75 53.95 Q 260.9 59.5 258.5 64.6 Q 256.1 69.7 254.7 73.6 Q 253.3 77.5 253.3 79.5 Q 253.3 80.8 253.9 81.75 Q 254.5 82.7 255.9 82.7 Q 257.8 82.7 259.8 80.8 Q 261.8 78.9 263.65 76.05 Q 265.5 73.2 266.95 70.45 Q 268.4 67.7 269.1 66 Q 270.3 66 270.3 66.9 Q 269.4 69 267.9 72.1 Q 266.4 75.2 264.4 78.2 Q 262.4 81.2 259.95 83.25 Q 257.5 85.3 254.8 85.3 Z M 197.7 85.6 Q 194 85.6 192.25 83.35 Q 190.5 81.1 190.5 78 Q 190.5 74.8 191.4 71.4 Q 192.3 68 193 65.7 Q 194.6 60.1 197.05 53.75 Q 199.5 47.4 202.45 41.25 Q 205.4 35.1 208.3 30.2 Q 210.6 26.3 213.25 24.35 Q 215.9 22.4 217.9 22.4 Q 219.5 22.4 220.45 23.55 Q 221.4 24.7 221.4 27 Q 221.4 28.6 220.85 30.8 Q 220.3 33 219 35.8 Q 215.5 43.6 210.65 51.4 Q 205.8 59.2 198.4 66 Q 197.2 68.8 196.4 72 Q 195.6 75.2 195.6 77.2 Q 195.6 83.4 199.8 83.4 Q 203 83.4 206.9 78.75 Q 210.8 74.1 214.3 66 Q 214.7 66 215.1 66.15 Q 215.5 66.3 215.5 66.9 Q 214.4 69.6 212.75 72.85 Q 211.1 76.1 208.95 79 Q 206.8 81.9 204 83.75 Q 201.2 85.6 197.7 85.6 Z M 211.6 72.3 L 218.3 55.2 Q 218.6 54.4 218.6 53.8 Q 218.6 52.8 218.1 52.05 L 217.4 51 L 222.9 50.8 Q 224.4 50.7 225.05 51.15 Q 225.7 51.6 225.7 52.2 Q 225.7 52.8 225 54.4 Q 224 56.8 222.3 60.4 Q 220.6 64 218.95 67.8 Q 217.3 71.6 216.15 74.9 Q 215 78.2 215 80 Q 215 81.3 215.65 82.2 Q 216.3 83.1 217.9 83.1 Q 220 83.1 222.05 81.45 Q 224.1 79.8 225.9 77.2 Q 227.7 74.6 229.25 71.6 Q 230.8 68.6 231.9 66 Q 233.1 66 233.1 66.9 Q 232.1 69.4 230.5 72.6 Q 228.9 75.8 226.85 78.65 Q 224.8 81.5 222.35 83.4 Q 219.9 85.3 217.1 85.3 Q 213.4 85.3 211.9 83.15 Q 210.4 81 210.4 78.2 Q 210.4 76.7 210.75 75.15 Q 211.1 73.6 211.6 72.3 Z M 199.2 62.8 Q 200.3 59.8 202.2 55.25 Q 204.1 50.7 206.4 45.8 Q 208.7 40.9 210.95 36.6 Q 213.2 32.3 215.1 29.8 Q 216.4 28 217.2 27.25 Q 218 26.5 218.4 26.5 Q 219.1 26.5 219.1 27.9 Q 219.1 29.1 218.65 30.9 Q 218.2 32.7 217.5 34.2 Q 215.5 38.9 212.55 44.15 Q 209.6 49.4 206.2 54.25 Q 202.8 59.1 199.2 62.8 Z M 236.7 82.3 Q 234 82.3 234 78.3 Q 234 75.9 235.35 72.55 Q 236.7 69.2 238.95 65.6 Q 241.2 62 243.95 58.9 Q 246.7 55.8 249.45 53.85 Q 252.2 51.9 254.5 51.9 Q 255.9 51.9 256.7 52.2 Q 257.5 52.5 258.2 53.1 Q 254.7 59.8 251.1 65.8 Q 247.5 71.8 244.7 75.8 Q 242.3 79.2 240.2 80.75 Q 238.1 82.3 236.7 82.3 Z M 226 44.6 Q 224.7 44.6 223.75 43.6 Q 222.8 42.6 222.8 41.2 Q 222.8 39.5 224.2 38.15 Q 225.6 36.8 227.3 36.8 Q 228.7 36.8 229.7 37.7 Q 230.7 38.6 230.7 40 Q 230.7 41.8 229.3 43.2 Q 227.9 44.6 226 44.6 Z M 107.9 12.7 Q 109.9 9.8 111.5 8.65 Q 113.1 7.5 114 7.5 Q 115 7.5 115 8.5 Q 115 10 112.7 11.25 Q 110.4 12.5 107.9 12.7 Z" vector-effect="non-scaling-stroke"/></g></svg>