<svg width="84.601" height="84.001" viewBox="0 0 84.601 84.001" xmlns="http://www.w3.org/2000/svg"><g id="svgGroup" stroke-linecap="round" fill-rule="evenodd" font-size="9pt" stroke="#000000" stroke-width="0.25mm" fill="none" style="stroke:#000000;stroke-width:0.25mm;fill:none"><path d="M 52.7 84 Q 48.3 84 46.5 80.55 Q 44.7 77.1 44.7 72.5 Q 44.7 68.4 45.85 64.4 Q 47 60.4 48.6 58.3 Q 45.9 61.5 41.9 65.6 Q 37.9 69.7 33.1 73.5 Q 28.3 77.3 23.2 79.8 Q 18.1 82.3 13.1 82.3 Q 6.5 82.3 3.25 78.1 Q 0 73.9 0 66.6 Q 0 60.9 1.95 54.35 Q 3.9 47.8 7.7 41 Q 9.5 37.7 11.75 34.45 Q 14 31.2 16.6 28.3 Q 13.5 26.8 10.6 24.95 Q 7.7 23.1 5.9 20.5 Q 4.1 17.9 4.1 14.3 Q 4.1 12.4 4.95 10.85 Q 5.8 9.3 6.8 9.3 Q 7.7 9.3 7.7 10.4 Q 7.7 11.1 7.3 11.9 Q 6.8 13.2 6.8 14.3 Q 6.8 17 8.7 19.35 Q 10.6 21.7 13.3 23.4 Q 16 25.1 18.3 26.1 Q 24.7 19.1 32.35 13.15 Q 40 7.2 48.8 3.6 Q 57.6 0 67.3 0 Q 75.4 0 80 3.55 Q 84.6 7.1 84.6 12.7 Q 84.6 17.7 81.75 21.25 Q 78.9 24.8 74.3 27.15 Q 69.7 29.5 64.35 30.85 Q 59 32.2 53.8 32.75 Q 48.6 33.3 44.7 33.3 Q 39 33.3 33.65 32.6 Q 28.3 31.9 23 30.4 Q 20.4 34.1 17.35 38.95 Q 14.3 43.8 11.55 49.15 Q 8.8 54.5 7.05 59.75 Q 5.3 65 5.3 69.5 Q 5.3 74.4 7.6 76.85 Q 9.9 79.3 13.8 79.3 Q 18.5 79.3 23.75 76.45 Q 29 73.6 34.3 69 Q 39.6 64.4 44.4 59 Q 49.2 53.6 53 48.3 Q 56.8 43 59 38.9 Q 60.7 35.7 62.3 34.35 Q 63.9 33 65 33 Q 66.1 33 66.7 33.85 Q 67.3 34.7 67.3 36.1 Q 67.3 38.9 64.8 41.7 Q 61.4 45.6 58.2 51.15 Q 55 56.7 53 62.75 Q 51 68.8 51 74.1 Q 51 77.8 52.15 79.4 Q 53.3 81 55.2 81 Q 58.1 81 61.05 79.05 Q 64 77.1 66.7 73.8 Q 69.4 70.5 71.7 66.45 Q 74 62.4 75.7 58.3 Q 76.2 58.3 76.55 58.4 Q 76.9 58.5 76.9 59.2 Q 75.2 63.5 72.85 67.9 Q 70.5 72.3 67.5 75.95 Q 64.5 79.6 60.8 81.8 Q 57.1 84 52.7 84 Z M 43.8 30.9 Q 38.3 30.9 33.65 30.3 Q 29 29.7 24.6 28.4 Q 30.3 21.6 36.65 15.7 Q 43 9.8 50.65 6.15 Q 58.3 2.5 67.6 2.5 Q 73.2 2.5 76.85 4.8 Q 80.5 7.1 80.5 11.5 Q 80.5 16.4 78 19.8 Q 75.5 23.2 71.4 25.4 Q 67.3 27.6 62.45 28.8 Q 57.6 30 52.7 30.45 Q 47.8 30.9 43.8 30.9 Z" vector-effect="non-scaling-stroke"/></g></svg>