<svg width="39.9" height="36.1" viewBox="0 0 39.9 36.1" xmlns="http://www.w3.org/2000/svg"><g id="svgGroup" stroke-linecap="round" fill-rule="evenodd" font-size="9pt" stroke="#000000" stroke-width="0.25mm" fill="none" style="stroke:#000000;stroke-width:0.25mm;fill:none"><path d="M 24.6 36.1 Q 22.3 36.1 20.55 34.8 Q 18.8 33.5 18.8 29.5 Q 18.8 27.8 19.05 26.3 Q 19.3 24.8 19.7 23.1 Q 18.8 24.6 17.2 26.8 Q 15.6 29 13.65 31.1 Q 11.7 33.2 9.65 34.6 Q 7.6 36 5.8 36 Q 3.2 36 1.6 33.65 Q 0 31.3 0 27.5 Q 0 23.4 1.9 18.7 Q 3.8 14 7.1 9.7 Q 10.4 5.4 14.7 2.7 Q 19 0 23.7 0 Q 26 0 28.1 0.75 Q 30.2 1.5 31.8 3.2 Q 32.5 3.9 32.5 4.8 Q 32.5 5.4 32 5.8 Q 31.5 6.2 30.7 6 Q 29.6 2.5 26 2.5 Q 24.3 2.5 22.1 3.6 Q 19.4 5 16.35 8.05 Q 13.3 11.1 10.65 14.95 Q 8 18.8 6.3 22.7 Q 4.6 26.6 4.6 29.8 Q 4.6 33.1 7.1 33.1 Q 9.3 33.1 11.65 31 Q 14 28.9 16.15 25.75 Q 18.3 22.6 20.1 19.5 Q 21.9 16.4 22.9 14.5 Q 24.4 11.8 25.7 10 Q 27 8.2 29.4 8.2 Q 30.5 8.2 31.6 8.5 Q 32.7 8.8 33.9 8.6 Q 30.9 11.6 28.65 15.7 Q 26.4 19.8 25.2 23.75 Q 24 27.7 24 30.4 Q 24 33.4 26 33.4 Q 27.6 33.4 29.45 31.6 Q 31.3 29.8 33.05 27.05 Q 34.8 24.3 36.3 21.45 Q 37.8 18.6 38.7 16.5 Q 39.2 16.5 39.55 16.6 Q 39.9 16.7 39.9 17.4 Q 39.8 17.8 39.55 18.25 Q 39.3 18.7 38.8 19.8 Q 38 21.4 36.6 24.1 Q 35.2 26.8 33.3 29.55 Q 31.4 32.3 29.2 34.2 Q 27 36.1 24.6 36.1 Z" vector-effect="non-scaling-stroke"/></g></svg>