<svg width="34.2" height="62.6" viewBox="0 0 34.2 62.6" xmlns="http://www.w3.org/2000/svg"><g id="svgGroup" stroke-linecap="round" fill-rule="evenodd" font-size="9pt" stroke="#000000" stroke-width="0.25mm" fill="none" style="stroke:#000000;stroke-width:0.25mm;fill:none"><path d="M 2.2 44.3 L 2 44.3 Q 1.2 44.3 1.2 43.5 Q 1.2 43.1 2.05 41.2 Q 2.9 39.3 4.25 36.6 Q 5.6 33.9 7.05 31.1 Q 8.5 28.3 9.7 26.1 Q 11.7 22.4 14.1 18.45 Q 16.5 14.5 18.85 10.9 Q 21.2 7.3 22.8 5 Q 26.4 0 29.5 0 L 30 0 Q 30.9 0 32.05 0.3 Q 33.2 0.6 34.2 0.4 Q 32.7 2 29.65 6.15 Q 26.6 10.3 23 15.6 Q 21.5 17.8 19.25 21.5 Q 17 25.2 14.5 29.8 Q 12 34.4 9.85 39.15 Q 7.7 43.9 6.3 48.35 Q 4.9 52.8 4.9 56.3 Q 4.9 58.6 5.7 59.5 Q 6.5 60.4 7.7 60.4 Q 9.2 60.4 11.25 58.65 Q 13.3 56.9 15.45 54.05 Q 17.6 51.2 19.4 47.75 Q 21.2 44.3 22.35 40.75 Q 23.5 37.2 23.5 34.2 Q 23.5 31.3 22.45 30 Q 21.4 28.7 19.7 28.7 Q 19 28.7 18.3 29.05 Q 17.6 29.4 17.1 29.4 Q 16.6 29.4 16.6 28.9 Q 16.6 28.4 17.65 27.8 Q 18.7 27.2 20.8 27.2 Q 22.7 27.2 24.65 28.2 Q 26.6 29.2 27.9 31.45 Q 29.2 33.7 29.2 37.3 Q 29.2 41.6 27.2 46.05 Q 25.2 50.5 22 54.25 Q 18.8 58 14.95 60.3 Q 11.1 62.6 7.5 62.6 Q 3.4 62.6 1.7 60.1 Q 0 57.6 0 54 Q 0 51.5 0.55 49.3 Q 1.1 47.1 2.2 44.3 Z" vector-effect="non-scaling-stroke"/></g></svg>