<svg width="52.9" height="62.9" viewBox="0 0 52.9 62.9" xmlns="http://www.w3.org/2000/svg"><g id="svgGroup" stroke-linecap="round" fill-rule="evenodd" font-size="9pt" stroke="#000000" stroke-width="0.25mm" fill="none" style="stroke:#000000;stroke-width:0.25mm;fill:none"><path d="M 25.9 62.9 Q 22.5 62.9 20.9 60.6 Q 19.3 58.3 19.3 55.2 Q 19.3 54.3 19.4 53.35 Q 19.5 52.4 19.8 51.4 Q 18.4 53.6 16.55 56.25 Q 14.7 58.9 12.35 60.85 Q 10 62.8 7.1 62.8 Q 5.8 62.8 4.15 62.2 Q 2.5 61.6 1.25 59.9 Q 0 58.2 0 54.9 Q 0 50.6 1.9 45.8 Q 3.8 41 7.1 36.75 Q 10.4 32.5 14.6 29.85 Q 18.8 27.2 23.3 27.2 Q 26.9 27.2 30.1 29.1 Q 31.6 26.3 33.3 22.85 Q 35 19.4 36.7 16 Q 38.4 12.6 39.7 9.75 Q 41 6.9 41.7 5.4 Q 43.2 1.9 44.55 0.95 Q 45.9 0 47.8 0 Q 48.9 0 50.25 0.25 Q 51.6 0.5 52.9 0.4 Q 52.4 0.9 50.6 3.7 Q 48.8 6.5 46.2 10.95 Q 43.6 15.4 40.65 20.7 Q 37.7 26 34.85 31.55 Q 32 37.1 29.6 42.2 Q 27.2 47.3 25.8 51.2 Q 24.4 55.1 24.4 57.1 Q 24.4 58.4 25 59.35 Q 25.6 60.3 27 60.3 Q 28.9 60.3 30.9 58.4 Q 32.9 56.5 34.75 53.65 Q 36.6 50.8 38.05 48.05 Q 39.5 45.3 40.2 43.6 Q 41.4 43.6 41.4 44.5 Q 40.5 46.6 39 49.7 Q 37.5 52.8 35.5 55.8 Q 33.5 58.8 31.05 60.85 Q 28.6 62.9 25.9 62.9 Z M 7.8 59.9 Q 5.1 59.9 5.1 55.9 Q 5.1 53.5 6.45 50.15 Q 7.8 46.8 10.05 43.2 Q 12.3 39.6 15.05 36.5 Q 17.8 33.4 20.55 31.45 Q 23.3 29.5 25.6 29.5 Q 27 29.5 27.8 29.8 Q 28.6 30.1 29.3 30.7 Q 25.8 37.4 22.2 43.4 Q 18.6 49.4 15.8 53.4 Q 13.4 56.8 11.3 58.35 Q 9.2 59.9 7.8 59.9 Z" vector-effect="non-scaling-stroke"/></g></svg>