<svg width="44.5" height="61.8" viewBox="0 0 44.5 61.8" xmlns="http://www.w3.org/2000/svg"><g id="svgGroup" stroke-linecap="round" fill-rule="evenodd" font-size="9pt" stroke="#000000" stroke-width="0.25mm" fill="none" style="stroke:#000000;stroke-width:0.25mm;fill:none"><path d="M 0 61.8 Q 4.2 53.2 8.75 43.75 Q 13.3 34.3 18.1 24.7 Q 22.9 15.1 27.6 6.4 Q 29.3 3.4 30.75 1.7 Q 32.2 0 34.6 0 Q 35.5 0 36.7 0.3 Q 37.9 0.6 39 0.4 Q 37.7 1.8 35.45 5.3 Q 33.2 8.8 30.45 13.7 Q 27.7 18.6 24.65 24.25 Q 21.6 29.9 18.65 35.65 Q 15.7 41.4 13.2 46.4 Q 15.2 43.8 17.3 41.5 Q 19.4 39.2 21.4 37.5 Q 23.6 35.5 26.95 33.3 Q 30.3 31.1 33.65 29.5 Q 37 27.9 39 27.9 Q 39.7 27.9 40 28 L 38.9 30 Q 37.8 32 36.15 35.1 Q 34.5 38.2 32.75 41.8 Q 31 45.4 29.7 48.65 Q 28.4 51.9 28 54 Q 27.7 55.6 27.7 56.7 Q 27.7 58.3 28.3 58.85 Q 28.9 59.4 29.6 59.4 Q 31.3 59.4 33.25 57.65 Q 35.2 55.9 37.1 53.2 Q 39 50.5 40.65 47.45 Q 42.3 44.4 43.3 41.7 Q 44.5 41.7 44.5 42.6 Q 43.4 45.3 41.75 48.55 Q 40.1 51.8 38 54.7 Q 35.9 57.6 33.4 59.5 Q 30.9 61.4 28.1 61.4 Q 26.1 61.4 24 60 Q 21.9 58.6 21.9 54.9 Q 21.9 53.8 22.1 52.55 Q 22.3 51.3 22.8 49.7 Q 23.4 47.7 24.8 45.25 Q 26.2 42.8 28.4 39.1 Q 29.4 37.4 29.4 36.4 Q 29.4 35.2 28.2 35.2 Q 27.2 35.2 25.5 36.2 Q 23.8 37.2 21.2 39.7 Q 18.7 42.1 15 46.7 Q 11.3 51.3 7.1 59.6 Q 6.4 60.9 5.55 60.95 Q 4.7 61 3.3 61.1 Q 2.4 61.2 1.5 61.25 Q 0.6 61.3 0 61.8 Z" vector-effect="non-scaling-stroke"/></g></svg>