<svg width="22.7" height="48.501" viewBox="0 0 22.7 48.501" xmlns="http://www.w3.org/2000/svg"><g id="svgGroup" stroke-linecap="round" fill-rule="evenodd" font-size="9pt" stroke="#000000" stroke-width="0.25mm" fill="none" style="stroke:#000000;stroke-width:0.25mm;fill:none"><path d="M 1.2 35.501 L 7.9 18.401 Q 8.2 17.601 8.2 17.001 Q 8.2 16.001 7.7 15.251 L 7 14.201 L 12.5 14.001 Q 14 13.901 14.65 14.351 Q 15.3 14.801 15.3 15.401 Q 15.3 16.001 14.6 17.601 Q 13.6 20.001 11.9 23.601 Q 10.2 27.201 8.55 31.001 Q 6.9 34.801 5.75 38.101 Q 4.6 41.401 4.6 43.201 Q 4.6 44.501 5.25 45.401 Q 5.9 46.301 7.5 46.301 Q 9.6 46.301 11.65 44.651 Q 13.7 43.001 15.5 40.401 Q 17.3 37.801 18.85 34.801 Q 20.4 31.801 21.5 29.201 Q 22.7 29.201 22.7 30.101 Q 21.7 32.601 20.1 35.801 Q 18.5 39.001 16.45 41.851 Q 14.4 44.701 11.95 46.601 Q 9.5 48.501 6.7 48.501 Q 3 48.501 1.5 46.351 Q 0 44.201 0 41.401 Q 0 39.901 0.35 38.351 Q 0.7 36.801 1.2 35.501 Z M 15.6 7.801 Q 14.3 7.801 13.35 6.801 Q 12.4 5.801 12.4 4.401 Q 12.4 2.701 13.8 1.351 Q 15.2 0.001 16.9 0.001 Q 18.3 0.001 19.3 0.901 Q 20.3 1.801 20.3 3.201 Q 20.3 5.001 18.9 6.401 Q 17.5 7.801 15.6 7.801 Z" vector-effect="non-scaling-stroke"/></g></svg>