<svg width="164.3" height="103.801" viewBox="0 0 164.3 103.801" xmlns="http://www.w3.org/2000/svg"><g id="svgGroup" stroke-linecap="round" fill-rule="evenodd" font-size="9pt" stroke="#000000" stroke-width="0.25mm" fill="none" style="stroke:#000000;stroke-width:0.25mm;fill:none"><path d="M 35.5 102.5 Q 28.7 102.5 22.35 100.65 Q 16 98.8 10.95 95.2 Q 5.9 91.6 2.95 86.4 Q 0 81.2 0 74.6 Q 0 69.8 1.45 66.05 Q 2.9 62.3 5.05 59.8 Q 7.2 57.3 9.35 56 Q 11.5 54.7 12.9 54.7 Q 13.9 54.7 13.9 55.3 Q 13.9 55.8 13.4 56.1 Q 11.1 57.3 8.7 59.6 Q 6.3 61.9 4.7 65.6 Q 3.1 69.3 3.1 74.8 Q 3.1 80.8 5.65 85.05 Q 8.2 89.3 12.35 92 Q 16.5 94.7 21.3 95.95 Q 26.1 97.2 30.5 97.2 Q 40.3 97.2 48.8 93.4 Q 57.3 89.6 64.35 83.25 Q 71.4 76.9 76.8 69.1 Q 82.2 61.3 85.7 53.3 Q 87 50.4 88.8 46.35 Q 90.6 42.3 92.7 37.7 Q 94.8 33.1 96.8 28.7 Q 98.8 24.3 100.45 20.75 Q 102.1 17.2 103.1 15.3 Q 96.4 16.1 88.65 16.75 Q 80.9 17.4 73.9 19.4 Q 66.1 21.6 61.15 25.8 Q 56.2 30 53.85 34.9 Q 51.5 39.8 51.5 44.1 Q 51.5 49.3 54.1 52.65 Q 56.7 56 61.6 56 Q 65.3 56 68.2 53.85 Q 71.1 51.7 72.8 48.25 Q 74.5 44.8 74.5 40.9 Q 74.5 39.3 74.2 38.2 Q 73.9 37.1 73.9 36.5 Q 73.9 35.8 74.4 35.8 Q 75.1 35.8 75.7 37 Q 76.7 39.3 76.7 41.5 Q 76.7 46.2 74.4 49.95 Q 72.1 53.7 68.5 55.9 Q 64.9 58.1 60.9 58.1 Q 56.2 58.1 52.75 55.85 Q 49.3 53.6 47.4 49.9 Q 45.5 46.2 45.5 41.9 Q 45.5 37 48.2 31.95 Q 50.9 26.9 56.9 22.75 Q 62.9 18.6 72.7 16.4 Q 80.9 14.6 89.4 14.05 Q 97.9 13.5 104.4 12.9 Q 107.9 7.5 110.1 6.05 Q 112.3 4.6 114.1 4.6 Q 115.9 4.6 116.95 5.6 Q 118 6.6 118 8 Q 118 10 115.25 12.25 Q 112.5 14.5 106 15.2 Q 102.8 21.1 100.1 28.35 Q 97.4 35.6 94.7 43.5 Q 92 51.4 88.8 59.2 Q 83.4 72.2 76 81.95 Q 68.6 91.7 58.6 97.1 Q 48.6 102.5 35.5 102.5 Z M 120.4 103.8 Q 113.4 103.8 106.85 99.45 Q 100.3 95.1 95.7 85 Q 93.7 80.5 92.45 75.9 Q 91.2 71.3 90.6 67.3 Q 90 63.3 90 60.7 Q 90 57.5 90.7 57.1 Q 92.6 57.3 97.05 55.5 Q 101.5 53.7 107.65 50.2 Q 113.8 46.7 120.95 41.75 Q 128.1 36.8 135.35 30.6 Q 142.6 24.4 149.3 17.2 Q 156 10 161.1 2.1 Q 161.8 1 162.2 0.5 Q 162.6 0 163 0 Q 163.5 0 163.9 0.45 Q 164.3 0.9 164.3 1.4 Q 164.3 2.2 163.6 3.3 Q 158.8 11.3 152.25 18.95 Q 145.7 26.6 138.3 33.3 Q 130.9 40 123.4 45.4 Q 115.9 50.8 109.1 54.4 Q 102.3 58 97.1 59.3 Q 96.8 59.1 96.8 60.3 Q 96.8 62 97.5 65.75 Q 98.2 69.5 99.65 74.25 Q 101.1 79 103.2 83.9 Q 107 92.8 112.15 96.15 Q 117.3 99.5 122.8 99.5 Q 126.3 99.5 130 98.1 Q 133.7 96.7 136.8 94.25 Q 139.9 91.8 141.6 88.5 Q 142.2 87.5 142.5 87.5 Q 143.2 87.5 143.2 88.3 Q 143.2 88.6 143.05 88.95 Q 142.9 89.3 142.4 90.4 Q 141 93.2 137.75 96.35 Q 134.5 99.5 130.05 101.65 Q 125.6 103.8 120.4 103.8 Z M 107.9 12.7 Q 109.9 9.8 111.5 8.65 Q 113.1 7.5 114 7.5 Q 115 7.5 115 8.5 Q 115 10 112.7 11.25 Q 110.4 12.5 107.9 12.7 Z" vector-effect="non-scaling-stroke"/></g></svg>