<svg width="30.9" height="63.201" viewBox="0 0 30.9 63.201" xmlns="http://www.w3.org/2000/svg"><g id="svgGroup" stroke-linecap="round" fill-rule="evenodd" font-size="9pt" stroke="#000000" stroke-width="0.25mm" fill="none" style="stroke:#000000;stroke-width:0.25mm;fill:none"><path d="M 7.2 63.2 Q 3.5 63.2 1.75 60.95 Q 0 58.7 0 55.6 Q 0 52.4 0.9 49 Q 1.8 45.6 2.5 43.3 Q 4.1 37.7 6.55 31.35 Q 9 25 11.95 18.85 Q 14.9 12.7 17.8 7.8 Q 20.1 3.9 22.75 1.95 Q 25.4 0 27.4 0 Q 29 0 29.95 1.15 Q 30.9 2.3 30.9 4.6 Q 30.9 6.2 30.35 8.4 Q 29.8 10.6 28.5 13.4 Q 25 21.2 20.15 29 Q 15.3 36.8 7.9 43.6 Q 6.7 46.4 5.9 49.6 Q 5.1 52.8 5.1 54.8 Q 5.1 61 9.3 61 Q 12.5 61 16.4 56.35 Q 20.3 51.7 23.8 43.6 Q 24.2 43.6 24.6 43.75 Q 25 43.9 25 44.5 Q 23.9 47.2 22.25 50.45 Q 20.6 53.7 18.45 56.6 Q 16.3 59.5 13.5 61.35 Q 10.7 63.2 7.2 63.2 Z M 8.7 40.4 Q 9.8 37.4 11.7 32.85 Q 13.6 28.3 15.9 23.4 Q 18.2 18.5 20.45 14.2 Q 22.7 9.9 24.6 7.4 Q 25.9 5.6 26.7 4.85 Q 27.5 4.1 27.9 4.1 Q 28.6 4.1 28.6 5.5 Q 28.6 6.7 28.15 8.5 Q 27.7 10.3 27 11.8 Q 25 16.5 22.05 21.75 Q 19.1 27 15.7 31.85 Q 12.3 36.7 8.7 40.4 Z" vector-effect="non-scaling-stroke"/></g></svg>