<svg width="54.2" height="36.9" viewBox="0 0 54.2 36.9" xmlns="http://www.w3.org/2000/svg"><g id="svgGroup" stroke-linecap="round" fill-rule="evenodd" font-size="9pt" stroke="#000000" stroke-width="0.25mm" fill="none" style="stroke:#000000;stroke-width:0.25mm;fill:none"><path d="M 14 2.1 Q 11.2 2.1 9.9 4.3 Q 9.1 5.7 7.45 8.95 Q 5.8 12.2 3.5 17.4 Q 3.5 18.1 3.85 18.2 Q 4.2 18.3 4.7 18.3 Q 2.8 22.3 1.4 25 Q 0 27.7 0 30.3 Q 0 30.7 0.05 31.15 Q 0.1 31.6 0.2 32.1 Q 0.7 34.3 2.5 35.5 Q 4.3 36.7 6.4 36.7 Q 8.5 36.7 10.5 35.2 Q 12.5 33.7 14.3 31.5 Q 16.1 29.3 17.5 27.05 Q 18.9 24.8 19.8 23.2 Q 19.4 24.4 19.15 25.95 Q 18.9 27.5 18.9 29.1 Q 18.9 31.7 19.85 33.95 Q 20.8 36.2 23.3 36.7 Q 24 36.8 24.45 36.85 Q 24.9 36.9 25.5 36.9 Q 30.2 36.9 33.95 32.95 Q 37.7 29 40.4 23.6 Q 41.9 27.1 45.3 27.1 Q 48.1 27.1 50.35 24.7 Q 52.6 22.3 54.2 18.3 Q 54.2 17.4 53 17.4 Q 51.1 21.8 49.35 23.65 Q 47.6 25.5 45.6 25.5 Q 43.9 25.5 42.8 24.4 Q 41.7 23.3 41.4 21.6 Q 42.7 18.7 44 15.4 Q 45.3 12.1 46.35 9.1 Q 47.4 6.1 48.05 4.05 Q 48.7 2 48.7 1.7 Q 48.7 0 46.8 0 Q 43.4 0 41.35 4.55 Q 39.3 9.1 39.3 15.6 Q 39.3 16.7 39.45 18.25 Q 39.6 19.8 39.7 20.6 Q 38.4 23.7 36.35 27 Q 34.3 30.3 31.75 32.6 Q 29.2 34.9 26.4 34.9 Q 24.8 34.9 24.1 33.9 Q 23.4 32.9 23.4 31.3 Q 23.4 28.8 24.4 25.7 Q 25.4 22.6 26.55 20 Q 27.7 17.4 28.1 16.5 Q 30 12.4 31.1 10.35 Q 32.2 8.3 33.6 5.9 Q 34.7 4.1 35.85 3.4 Q 37 2.7 37.6 2.1 L 31.5 2.1 Q 29.9 2.1 29.05 2.65 Q 28.2 3.2 27.7 4.3 Q 26.8 6.1 25 9.85 Q 23.2 13.6 20.9 18 Q 18.6 22.4 16.15 26.35 Q 13.7 30.3 11.4 32.5 Q 9.4 34.5 7.8 34.5 Q 5.5 34.5 5.5 31 Q 5.5 29.6 6 27.7 Q 6.5 25.8 7.5 23.6 Q 8.2 22 9.25 19.8 Q 10.3 17.6 11.35 15.5 L 13.1 12 L 13.8 10.6 Q 15.8 6.5 17.15 4.95 Q 18.5 3.4 20.2 2.1 L 14 2.1 Z" vector-effect="non-scaling-stroke"/></g></svg>