<svg width="62.7" height="66.5" viewBox="0 0 62.7 66.5" xmlns="http://www.w3.org/2000/svg"><g id="svgGroup" stroke-linecap="round" fill-rule="evenodd" font-size="9pt" stroke="#000000" stroke-width="0.25mm" fill="none" style="stroke:#000000;stroke-width:0.25mm;fill:none"><path d="M 33.8 0 L 40 0 Q 39.3 0.6 38.25 1.35 Q 37.2 2.1 36.3 3.6 Q 33.6 8.2 31.6 12.45 Q 29.6 16.7 27.3 21.5 Q 26.2 23.8 25.7 25.7 Q 25.2 27.6 25.2 29 Q 25.2 32.3 27.4 32.3 Q 29.8 32.3 33.2 28.4 Q 36 25.1 38.85 20.55 Q 41.7 16 44.35 11.15 Q 47 6.3 49 2.2 Q 50.1 0 52.9 0 L 58.4 0 Q 55.5 2 53.95 5.2 Q 52.4 8.4 50.5 13.4 Q 48.4 18.9 46.5 24.8 Q 44.6 30.7 42.3 36.9 Q 47.2 35.2 50.5 32.5 Q 53.8 29.8 56.35 25.55 Q 58.9 21.3 61.5 15.3 Q 62.7 15.3 62.7 16.2 Q 60.5 20.8 58.7 24.3 Q 56.9 27.8 54.7 30.45 Q 52.5 33.1 49.2 35.35 Q 45.9 37.6 40.7 39.7 Q 38.3 44 35.25 48.65 Q 32.2 53.3 28.35 57.35 Q 24.5 61.4 19.85 63.95 Q 15.2 66.5 9.6 66.5 Q 4.4 66.5 2.2 64.45 Q 0 62.4 0 59.6 Q 0 55.3 3.15 51.65 Q 6.3 48 10.9 45.8 Q 16.1 43.4 22.75 41.9 Q 29.4 40.4 35.5 38.6 Q 37.4 35.3 39 31.05 Q 40.6 26.8 41.9 22.75 Q 43.2 18.7 44 16.1 Q 42.8 18.3 40.95 21.45 Q 39.1 24.6 36.8 27.6 Q 34.5 30.6 31.85 32.6 Q 29.2 34.6 26.3 34.6 Q 25.2 34.6 23.65 34.1 Q 22.1 33.6 20.95 32.25 Q 19.8 30.9 19.8 28.2 Q 19.8 25.6 21.4 22.45 Q 23 19.3 24.6 16.2 Q 24.1 16.2 23.75 16.1 Q 23.4 16 23.4 15.3 Q 23.7 14.7 24.6 12.7 Q 25.5 10.7 26.65 8.3 Q 27.8 5.9 28.7 4.1 Q 29.8 1.8 31.15 0.9 Q 32.5 0 33.8 0 Z M 7.2 64.5 Q 4.7 64.5 3.55 63.35 Q 2.4 62.2 2.4 60.4 Q 2.4 57.5 5.15 53.8 Q 7.9 50.1 12.7 48.1 Q 17 46.2 22.85 44.65 Q 28.7 43.1 33.6 41.8 Q 33 42.8 32.4 43.9 Q 31.8 45 31.3 45.7 Q 29.6 48.1 26.85 51.25 Q 24.1 54.4 20.8 57.45 Q 17.5 60.5 14 62.5 Q 10.5 64.5 7.2 64.5 Z" vector-effect="non-scaling-stroke"/></g></svg>